[img]http://img857.imageshack.us/img857/738/dirygirl.jpg[/img]
[code]
Dirty Girl 2011 DVDRip XVID AC3-26K

Imdb: 
http://www.imdb.com/title/tt1107319/

Plot:
It's 1987 and Danielle, the high school 'Dirty Girl', is running away. With her is chubby, gay Clarke, a 

bag of flour called Joan and a Walkman full of glorious '80s tunes.

Sources:
DVDR THNXS!!

Notes:
Encoded the video added a few filters to make it look nice :)
thnxs to CM8 for cleaned up line audio you rock :) good job !
English subs included!

Greetz:
Xtreme Encode|FYA|ILLUMANTI|CM8|RX|VISION|HDSCENE|NIGHTMAREZ|xTriLL|DTRG|CRYS|REMIXHD|BIDA|RX|REFILL| 

INSPiRAL|SIC
To all the people who have helped me :P you know who you are

Anything to offer email us @: 26k@hushmail.me

Video
ID                                       : 0
Format                                   : MPEG-4 Visual
Format profile                           : Advanced Simple@L5
Format settings, BVOP                    : 2
Format settings, QPel                    : No
Format settings, GMC                     : No warppoints
Format settings, Matrix                  : Default (H.263)
Muxing mode                              : Packed bitstream
Codec ID                                 : XVID
Codec ID/Hint                            : XviD
Duration                                 : 1h 29mn
Bit rate                                 : 1 558 Kbps
Width                                    : 720 pixels
Height                                   : 304 pixels
Display aspect ratio                     : 2.35:1
Frame rate                               : 23.976 fps
Color space                              : YUV
Chroma subsampling                       : 4:2:0
Bit depth                                : 8 bits
Scan type                                : Progressive
Compression mode                         : Lossy
Bits/(Pixel*Frame)                       : 0.297
Stream size                              : 996 MiB (77%)
Writing library                          : XviD 1.2.1 (UTC 2008-12-04)

Audio
ID                                       : 1
Format                                   : AC-3
Format/Info                              : Audio Coding 3
Mode extension                           : CM (complete main)
Codec ID                                 : 2000
Duration                                 : 1h 29mn
Bit rate mode                            : Constant
Bit rate                                 : 448 Kbps
Channel(s)                               : 6 channels
Channel positions                        : Front: L C R, Side: L R, LFE
Sampling rate                            : 48.0 KHz
Bit depth                                : 16 bits
Compression mode                         : Lossy
Stream size                              : 286 MiB (22%)
Alignment                                : Aligned on interleaves
Interleave, duration                     : 32 ms (0.77 video frame)
Interleave, preload duration             : 32 ms

[/code]
Screens:
[img]http://img849.imageshack.us/img849/9074/vlcsnap2012010922h09m19.png[/img]
[img]http://img864.imageshack.us/img864/430/vlcsnap2012010922h09m24.png[/img]
[img]http://img3.imageshack.us/img3/6124/vlcsnap2012010922h09m37.png[/img]
[img]http://img52.imageshack.us/img52/1135/vlcsnap2012010922h10m03.png[/img]
[img]http://img40.imageshack.us/img40/4893/vlcsnap2012010922h11m11.png[/img]
[img]http://img576.imageshack.us/img576/9703/vlcsnap2012010922h13m42.png[/img]
[img]http://img196.imageshack.us/img196/131/vlcsnap2012010922h13m49.png[/img]
[img]http://img812.imageshack.us/img812/5015/vlcsnap2012010922h13m52.png[/img]
[img]http://img822.imageshack.us/img822/9605/vlcsnap2012010922h13m55.png[/img]
[img]http://img820.imageshack.us/img820/4946/vlcsnap2012010922h14m00.png[/img]

[img]http://img851.imageshack.us/img851/5503/26ks.jpg[/img]
Thank you smallz for banner!